<svg width="22" height="20" viewBox="0 0 22 20" fill="none" xmlns="http://www.w3.org/2000/svg">
<path d="M14.075 16.95L13.225 19.375C13.1583 19.5583 13.0417 19.7083 12.875 19.825C12.7083 19.9417 12.525 20 12.325 20C11.9917 20 11.7208 19.8625 11.5125 19.5875C11.3042 19.3125 11.2667 19.0083 11.4 18.675L15.2 8.625C15.2833 8.44167 15.4083 8.29167 15.575 8.175C15.7417 8.05833 15.925 8 16.125 8H16.875C17.075 8 17.2583 8.05833 17.425 8.175C17.5917 8.29167 17.7167 8.44167 17.8 8.625L21.6 18.7C21.7333 19.0167 21.7 19.3125 21.5 19.5875C21.3 19.8625 21.0333 20 20.7 20C20.4833 20 20.2958 19.9417 20.1375 19.825C19.9792 19.7083 19.8583 19.55 19.775 19.35L18.925 16.95H14.075ZM8.05 11.975L3.7 16.3C3.51667 16.4833 3.2875 16.5792 3.0125 16.5875C2.7375 16.5958 2.5 16.5 2.3 16.3C2.11667 16.1167 2.025 15.8833 2.025 15.6C2.025 15.3167 2.11667 15.0833 2.3 14.9L6.65 10.55C6.06667 9.96667 5.5375 9.3 5.0625 8.55C4.5875 7.8 4.15 6.95 3.75 6H5.85C6.18333 6.65 6.51667 7.21667 6.85 7.7C7.18333 8.18333 7.58333 8.66667 8.05 9.15C8.6 8.6 9.17083 7.82917 9.7625 6.8375C10.3542 5.84583 10.8 4.9 11.1 4H1C0.716666 4 0.479166 3.90417 0.2875 3.7125C0.0958332 3.52083 -1.78814e-07 3.28333 -1.78814e-07 3C-1.78814e-07 2.71667 0.0958332 2.47917 0.2875 2.2875C0.479166 2.09583 0.716666 2 1 2H7V1C7 0.716667 7.09583 0.479167 7.2875 0.2875C7.47917 0.0958332 7.71667 -1.19209e-07 8 -1.19209e-07C8.28333 -1.19209e-07 8.52083 0.0958332 8.7125 0.2875C8.90417 0.479167 9 0.716667 9 1V2H15C15.2833 2 15.5208 2.09583 15.7125 2.2875C15.9042 2.47917 16 2.71667 16 3C16 3.28333 15.9042 3.52083 15.7125 3.7125C15.5208 3.90417 15.2833 4 15 4H13.1C12.75 5.2 12.225 6.43333 11.525 7.7C10.825 8.96667 10.1333 9.93333 9.45 10.6L11.85 13.05L11.1 15.1L8.05 11.975ZM14.7 15.2H18.3L16.5 10.1L14.7 15.2Z" fill="url(#paint0_linear_133_10)"/>
<defs>
<linearGradient id="paint0_linear_133_10" x1="10.84" y1="-1.19209e-07" x2="10.84" y2="20" gradientUnits="userSpaceOnUse">
<stop offset="0.38" stop-color="#2965B3"/>
<stop offset="1" stop-color="#7EB95A"/>
</linearGradient>
</defs>
</svg>
