<svg width="22" height="19" viewBox="0 0 22 19" fill="none" xmlns="http://www.w3.org/2000/svg">
<path d="M11 18.55C10.8167 18.55 10.6375 18.525 10.4625 18.475C10.2875 18.425 10.125 18.3583 9.975 18.275C9.29167 17.8583 8.575 17.5417 7.825 17.325C7.075 17.1083 6.3 17 5.5 17C4.8 17 4.1125 17.0917 3.4375 17.275C2.7625 17.4583 2.11667 17.7167 1.5 18.05C1.15 18.2333 0.8125 18.225 0.4875 18.025C0.1625 17.825 -1.78814e-07 17.5333 -1.78814e-07 17.15V5.1C-1.78814e-07 4.91667 0.0458332 4.74167 0.1375 4.575C0.229166 4.40833 0.366666 4.28333 0.55 4.2C1.31667 3.8 2.11667 3.5 2.95 3.3C3.78333 3.1 4.63333 3 5.5 3C6.46667 3 7.4125 3.125 8.3375 3.375C9.2625 3.625 10.15 4 11 4.5V16.6C11.85 16.0667 12.7417 15.6667 13.675 15.4C14.6083 15.1333 15.55 15 16.5 15C17.1 15 17.6875 15.05 18.2625 15.15C18.8375 15.25 19.4167 15.4 20 15.6V3.6C20.25 3.68333 20.4958 3.77083 20.7375 3.8625C20.9792 3.95417 21.2167 4.06667 21.45 4.2C21.6333 4.28333 21.7708 4.40833 21.8625 4.575C21.9542 4.74167 22 4.91667 22 5.1V17.15C22 17.5333 21.8375 17.825 21.5125 18.025C21.1875 18.225 20.85 18.2333 20.5 18.05C19.8833 17.7167 19.2375 17.4583 18.5625 17.275C17.8875 17.0917 17.2 17 16.5 17C15.7 17 14.925 17.1083 14.175 17.325C13.425 17.5417 12.7083 17.8583 12.025 18.275C11.875 18.3583 11.7125 18.425 11.5375 18.475C11.3625 18.525 11.1833 18.55 11 18.55ZM13.825 13.25C13.6583 13.4 13.4792 13.4292 13.2875 13.3375C13.0958 13.2458 13 13.0917 13 12.875V4.7C13 4.63333 13.0125 4.57083 13.0375 4.5125C13.0625 4.45417 13.1 4.4 13.15 4.35L17.15 0.349999C17.3167 0.183333 17.5 0.141666 17.7 0.224999C17.9 0.308333 18 0.466666 18 0.699999V9.275C18 9.35833 17.9833 9.42917 17.95 9.4875C17.9167 9.54583 17.875 9.6 17.825 9.65L13.825 13.25ZM9 15.625V5.725C8.45 5.49167 7.87917 5.3125 7.2875 5.1875C6.69583 5.0625 6.1 5 5.5 5C4.88333 5 4.28333 5.05833 3.7 5.175C3.11667 5.29167 2.55 5.46667 2 5.7V15.625C2.58333 15.4083 3.1625 15.25 3.7375 15.15C4.3125 15.05 4.9 15 5.5 15C6.1 15 6.6875 15.05 7.2625 15.15C7.8375 15.25 8.41667 15.4083 9 15.625Z" fill="url(#paint0_linear_133_6)"/>
<defs>
<linearGradient id="paint0_linear_133_6" x1="11" y1="0.183333" x2="11" y2="18.55" gradientUnits="userSpaceOnUse">
<stop offset="0.38" stop-color="#2965B3"/>
<stop offset="1" stop-color="#7EB95A"/>
</linearGradient>
</defs>
</svg>
