<svg width="234" height="49" viewBox="0 0 234 49" fill="none" xmlns="http://www.w3.org/2000/svg">
<path d="M29.888 48L26.56 36.928H9.856L6.528 48H0.384L14.528 3.904H22.208L36.288 48H29.888ZM11.328 32H25.088L18.24 8.96L11.328 32ZM76.6235 13.504C79.3968 13.504 81.6155 14.4427 83.2795 16.32C84.9435 18.1547 85.7755 20.6507 85.7755 23.808V48H79.8875V24.64C79.8875 20.288 78.3088 18.112 75.1515 18.112C73.4875 18.112 72.0795 18.6027 70.9275 19.584C69.7755 20.5227 68.5382 22.016 67.2155 24.064V48H61.3275V24.64C61.3275 20.288 59.7488 18.112 56.5915 18.112C54.8848 18.112 53.4555 18.6027 52.3035 19.584C51.1515 20.5653 49.9355 22.0587 48.6555 24.064V48H42.7675V14.272H47.8235L48.3355 19.2C50.8528 15.4027 54.0955 13.504 58.0635 13.504C60.1542 13.504 61.9248 14.0373 63.3755 15.104C64.8688 16.1707 65.9355 17.664 66.5755 19.584C67.8982 17.6213 69.3488 16.128 70.9275 15.104C72.5488 14.0373 74.4475 13.504 76.6235 13.504ZM120.363 40.128C120.363 41.4933 120.597 42.5173 121.067 43.2C121.536 43.84 122.24 44.3307 123.179 44.672L121.835 48.768C120.085 48.5547 118.677 48.064 117.611 47.296C116.544 46.528 115.755 45.3333 115.243 43.712C112.981 47.0827 109.632 48.768 105.195 48.768C101.867 48.768 99.2425 47.8293 97.3225 45.952C95.4025 44.0747 94.4425 41.6213 94.4425 38.592C94.4425 35.008 95.7225 32.256 98.2825 30.336C100.885 28.416 104.555 27.456 109.291 27.456H114.475V24.96C114.475 22.5707 113.899 20.864 112.747 19.84C111.595 18.816 109.824 18.304 107.435 18.304C104.96 18.304 101.931 18.9013 98.3465 20.096L96.8745 15.808C101.056 14.272 104.939 13.504 108.523 13.504C112.491 13.504 115.456 14.4853 117.419 16.448C119.381 18.368 120.363 21.12 120.363 24.704V40.128ZM106.539 44.352C109.909 44.352 112.555 42.6027 114.475 39.104V31.36H110.059C103.829 31.36 100.715 33.664 100.715 38.272C100.715 40.2773 101.205 41.792 102.187 42.816C103.168 43.84 104.619 44.352 106.539 44.352ZM148.327 13.504C151.399 13.504 153.788 14.4213 155.495 16.256C157.244 18.0907 158.119 20.608 158.119 23.808V48H152.231V24.64C152.231 22.2507 151.783 20.5653 150.887 19.584C149.991 18.6027 148.668 18.112 146.919 18.112C145.127 18.112 143.548 18.624 142.183 19.648C140.818 20.672 139.538 22.144 138.343 24.064V48H132.455V14.272H137.511L138.023 19.264C139.218 17.472 140.69 16.064 142.439 15.04C144.231 14.016 146.194 13.504 148.327 13.504ZM196.067 0.703999V48H190.883L190.307 43.328C189.198 45.0347 187.811 46.3787 186.147 47.36C184.483 48.2987 182.627 48.768 180.579 48.768C176.568 48.768 173.432 47.1893 171.171 44.032C168.952 40.8747 167.843 36.6293 167.843 31.296C167.843 27.84 168.376 24.768 169.443 22.08C170.51 19.392 172.046 17.3013 174.051 15.808C176.056 14.272 178.403 13.504 181.091 13.504C184.547 13.504 187.576 14.8907 190.179 17.664V-3.8147e-06L196.067 0.703999ZM181.859 44.096C183.651 44.096 185.187 43.6907 186.467 42.88C187.747 42.0267 188.984 40.768 190.179 39.104V22.592C189.07 21.1413 187.875 20.0533 186.595 19.328C185.358 18.56 183.95 18.176 182.371 18.176C179.768 18.176 177.742 19.264 176.291 21.44C174.883 23.616 174.179 26.8587 174.179 31.168C174.179 35.52 174.84 38.7627 176.163 40.896C177.486 43.0293 179.384 44.096 181.859 44.096ZM230.925 40.128C230.925 41.4933 231.16 42.5173 231.629 43.2C232.098 43.84 232.802 44.3307 233.741 44.672L232.397 48.768C230.648 48.5547 229.24 48.064 228.173 47.296C227.106 46.528 226.317 45.3333 225.805 43.712C223.544 47.0827 220.194 48.768 215.757 48.768C212.429 48.768 209.805 47.8293 207.885 45.952C205.965 44.0747 205.005 41.6213 205.005 38.592C205.005 35.008 206.285 32.256 208.845 30.336C211.448 28.416 215.117 27.456 219.853 27.456H225.037V24.96C225.037 22.5707 224.461 20.864 223.309 19.84C222.157 18.816 220.386 18.304 217.997 18.304C215.522 18.304 212.493 18.9013 208.909 20.096L207.437 15.808C211.618 14.272 215.501 13.504 219.085 13.504C223.053 13.504 226.018 14.4853 227.981 16.448C229.944 18.368 230.925 21.12 230.925 24.704V40.128ZM217.101 44.352C220.472 44.352 223.117 42.6027 225.037 39.104V31.36H220.621C214.392 31.36 211.277 33.664 211.277 38.272C211.277 40.2773 211.768 41.792 212.749 42.816C213.73 43.84 215.181 44.352 217.101 44.352Z" fill="black"/>
</svg>
